<svg width="18" height="18" viewBox="0 0 18 18" fill="none" xmlns="http://www.w3.org/2000/svg">
<g clip-path="url(#clip0_76_2)">
<path d="M16.3029 3.6C15.1218 3.6 14.0121 3.0459 13.2582 2.0799C12.2265 0.7578 10.6746 0 9 0C7.3254 0 5.7735 0.7578 4.7421 2.0799C3.9879 3.0459 2.8782 3.6 1.6971 3.6C1.2576 3.6 0.9 3.9576 0.9 4.3971V4.5C0.9 4.6608 0.9657 4.8177 1.0803 4.9305C1.1937 5.0424 1.335 5.1 1.5 5.1C1.5 7.3911 2.862 9.3657 4.8162 10.2705L4.0527 17.0835C3.9966 17.2992 4.0401 17.5233 4.1736 17.7033C4.3134 17.892 4.5282 18 4.7628 18H5.0568C5.3823 18 5.664 17.7909 5.7588 17.4795L6.1527 13.9926L9 12.3459L11.8443 13.9908L12.2301 17.4258L12.2412 17.4795C12.3357 17.7909 12.6177 18 12.9432 18H13.2372C13.4718 18 13.6866 17.892 13.8264 17.7036C13.9599 17.5233 14.0034 17.2992 13.9473 17.0838L13.1838 10.2708C15.1377 9.3657 16.4979 7.3911 16.4925 5.1C16.6653 5.1006 16.8069 5.0403 16.9218 4.9269C17.0367 4.8132 17.1 4.6617 17.1 4.5V4.3971C17.1 3.9576 16.7424 3.6 16.3029 3.6ZM5.0568 17.4H4.7628C4.7043 17.4 4.6704 17.3664 4.6557 17.346C4.641 17.3256 4.6182 17.2839 4.6353 17.2278L5.3937 10.5045C5.4042 10.5081 5.4156 10.5102 5.4264 10.5135C5.5773 10.563 5.7318 10.6044 5.8881 10.6413C5.9013 10.6443 5.9139 10.6491 5.9271 10.6521L5.1777 17.3232C5.1558 17.3691 5.1084 17.4 5.0568 17.4ZM6.2367 13.251L6.5022 10.9014L8.4009 11.9994L6.2367 13.251ZM7.5252 10.8H10.4751L9 11.6529L7.5252 10.8ZM9.5991 11.9994L11.4972 10.9017L11.7609 13.2498L9.5991 11.9994ZM12.6063 10.5048L13.3536 17.1744L13.3647 17.2281C13.3818 17.2842 13.359 17.3259 13.3443 17.3463C13.3296 17.3667 13.2957 17.4 13.2372 17.4H12.9432C12.8916 17.4 12.8445 17.3691 12.8226 17.3235L12.0732 10.6524C12.0867 10.6494 12.0993 10.6446 12.1125 10.6416C12.2685 10.6047 12.423 10.5636 12.5736 10.5141C12.5844 10.5102 12.5958 10.5081 12.6063 10.5048ZM16.5 4.5C16.3419 4.5084 16.1931 4.5585 16.0794 4.6704C15.9654 4.7829 15.9 4.9395 15.9 5.1C15.9 7.2081 14.6142 9.0216 12.7857 9.7974L12.7797 9.7998C12.7425 9.8157 12.7029 9.8268 12.6651 9.8418C12.5277 9.8955 12.3885 9.9465 12.2436 9.9885C12.2319 9.9921 12.2199 9.9942 12.2079 9.9978C12.0414 10.0449 11.8707 10.0851 11.6961 10.116C11.4045 10.1682 11.1063 10.2 10.8 10.2H7.2C6.8937 10.2 6.5955 10.1682 6.3039 10.1163C6.129 10.0851 5.9586 10.0449 5.7921 9.9981C5.7804 9.9948 5.7681 9.9924 5.7564 9.9888C5.6115 9.9468 5.472 9.8958 5.3349 9.8421C5.2971 9.8271 5.2578 9.816 5.2203 9.8001L5.2143 9.7977C3.3858 9.0216 2.1 7.2081 2.1 5.1C2.1 4.9377 2.0364 4.7856 1.9206 4.6716C1.8078 4.5606 1.6596 4.5 1.509 4.5C1.5063 4.5 1.503 4.5 1.5 4.5V4.3971C1.5 4.2885 1.5885 4.2 1.6971 4.2C3.0642 4.2 4.3464 3.5616 5.2149 2.4489C6.1317 1.2738 7.5114 0.6 9 0.6C10.4886 0.6 11.8683 1.2738 12.7851 2.4489C13.6536 3.5616 14.9358 4.2 16.3029 4.2C16.4115 4.2 16.5 4.2885 16.5 4.3971V4.5Z" fill="black"/>
<path d="M13.149 6.642L12.93 6.5952C10.5219 6.0792 8.0793 6.0789 5.6706 6.5952L5.451 6.642C5.0739 6.723 4.8 7.0614 4.8 7.4469V7.8765C4.8 8.1264 4.9113 8.3595 5.1057 8.5167C5.3001 8.6739 5.55 8.7336 5.7963 8.6817C8.1213 8.1837 10.4787 8.1837 12.8043 8.6817C12.8619 8.694 12.9198 8.7 12.9777 8.7C13.1643 8.7 13.3461 8.6367 13.4946 8.5167C13.6887 8.3595 13.8 8.1264 13.8 7.8765V7.4469C13.8 7.0614 13.5264 6.723 13.149 6.642ZM13.2 7.8765C13.2 7.9692 13.1481 8.025 13.1172 8.0502C13.0863 8.0751 13.0221 8.1147 12.93 8.0949C11.7255 7.8369 10.5129 7.7076 9.3 7.7076C8.0874 7.7076 6.8745 7.8369 5.6703 8.0949C5.5785 8.1144 5.514 8.0751 5.4828 8.0502C5.4519 8.025 5.4 7.9689 5.4 7.8765V7.4469C5.4 7.3422 5.4744 7.2504 5.5767 7.2282L5.796 7.1814C8.121 6.6834 10.479 6.6834 12.804 7.1814L13.023 7.2282C13.1256 7.2504 13.2 7.3425 13.2 7.4469V7.8765Z" fill="black"/>
</g>
<defs>
<clipPath id="clip0_76_2">
<rect width="18" height="18" fill="white"/>
</clipPath>
</defs>
</svg>
