<svg width="18" height="18" viewBox="0 0 18 18" fill="none" xmlns="http://www.w3.org/2000/svg">
<g clip-path="url(#clip0_76_21)">
<path d="M9 0C4.05 0 0 4.05 0 9C0 13.95 4.05 18 9 18C13.95 18 18 13.95 18 9C18 4.05 13.95 0 9 0ZM9 17.4C4.38001 17.4 0.600012 13.62 0.600012 9C0.600012 4.38001 4.38001 0.600012 9 0.600012C13.62 0.600012 17.4 4.38001 17.4 9C17.4 13.62 13.62 17.4 9 17.4Z" fill="black"/>
<path d="M4.5 3.30002C4.56001 3.30002 4.61999 3.27003 4.65001 3.21002C5.58 2.52001 6.69002 2.04002 7.83 1.86002C7.98001 1.86002 8.1 1.68002 8.07001 1.53001C8.07001 1.37999 7.89001 1.26001 7.74 1.28999C6.50999 1.49998 5.33999 2.00999 4.32 2.75998C4.20001 2.84998 4.16999 3.05997 4.25999 3.17999C4.32 3.26999 4.41 3.30002 4.5 3.30002Z" fill="black"/>
<path d="M3.17999 4.29C3.06 4.2 2.84998 4.22999 2.75998 4.35002C1.97996 5.34002 1.49998 6.54 1.28999 7.77002C1.26 7.92003 1.37999 8.07 1.53 8.10003C1.55999 8.10003 1.55999 8.10003 1.59001 8.10003C1.74002 8.10003 1.86001 8.01003 1.89 7.86002C2.07 6.72 2.54999 5.64 3.24 4.71002C3.33 4.58999 3.30001 4.38 3.17999 4.29Z" fill="black"/>
<path d="M1.86001 10.17C1.86001 10.02 1.68001 9.89999 1.53 9.92998C1.37999 9.92998 1.26 10.11 1.28999 10.26C1.49998 11.49 2.00999 12.66 2.75998 13.68C2.81999 13.77 2.90999 13.8 2.99999 13.8C3.06 13.8 3.11998 13.77 3.15 13.77C3.26999 13.68 3.30001 13.47 3.21001 13.35C2.52 12.42 2.04001 11.31 1.86001 10.17Z" fill="black"/>
<path d="M7.83 16.11C6.68999 15.93 5.60999 15.45 4.68 14.76C4.56001 14.67 4.34999 14.7 4.25999 14.82C4.16999 14.94 4.19998 15.15 4.32 15.24C5.31 16.02 6.50999 16.5 7.74 16.71C7.76999 16.71 7.76999 16.71 7.80001 16.71C7.95002 16.71 8.07001 16.59 8.07001 16.44C8.1 16.29 7.98001 16.14 7.83 16.11Z" fill="black"/>
<path d="M13.29 14.79C12.36 15.48 11.28 15.96 10.14 16.14C9.99 16.14 9.87001 16.32 9.9 16.47C9.92999 16.62 10.05 16.71 10.2 16.71C10.23 16.71 10.23 16.71 10.23 16.74C11.46 16.53 12.63 16.02 13.65 15.27C13.77 15.18 13.8 14.97 13.71 14.85C13.62 14.73 13.41 14.7 13.29 14.79Z" fill="black"/>
<path d="M16.44 9.92998C16.29 9.89999 16.14 10.02 16.11 10.17C15.93 11.31 15.45 12.39 14.76 13.32C14.67 13.44 14.7 13.65 14.82 13.74C14.88 13.77 14.94 13.8 15 13.8C15.09 13.8 15.18 13.74 15.21 13.68C15.99 12.69 16.47 11.49 16.68 10.26C16.71 10.11 16.59 9.96 16.44 9.92998Z" fill="black"/>
<path d="M16.11 7.85999C16.14 8.01001 16.26 8.10001 16.41 8.10001C16.41 8.10001 16.44 8.10001 16.47 8.07002C16.62 8.07002 16.74 7.89002 16.71 7.74001C16.5 6.51 15.99 5.33999 15.24 4.32001C15.15 4.20002 14.94 4.16999 14.82 4.25999C14.7 4.34999 14.67 4.55998 14.76 4.68001C15.45 5.60999 15.93 6.72002 16.11 7.85999Z" fill="black"/>
<path d="M10.14 1.89001C11.28 2.07001 12.39 2.55 13.32 3.24001C13.38 3.27 13.44 3.30002 13.5 3.30002C13.59 3.30002 13.68 3.27004 13.71 3.21002C13.8 3.09004 13.77 2.88001 13.65 2.79001C12.66 2.04002 11.46 1.53001 10.23 1.32002C10.08 1.29004 9.92999 1.41002 9.89996 1.56004C9.86994 1.71005 9.99 1.86002 10.14 1.89001Z" fill="black"/>
<path d="M9 2.99998C9.18 2.99998 9.29999 2.84997 9.29999 2.69999V1.5C9.29999 1.32 9.18 1.20001 9 1.20001C8.82 1.20001 8.70001 1.32 8.70001 1.5V2.69999C8.70001 2.87999 8.82 2.99998 9 2.99998Z" fill="black"/>
<path d="M9 15C8.82 15 8.70001 15.12 8.70001 15.3V16.5C8.70001 16.68 8.82 16.8 9 16.8C9.18 16.8 9.29999 16.68 9.29999 16.5V15.3C9.29999 15.12 9.18 15 9 15Z" fill="black"/>
<path d="M16.5 8.70001H15.3C15.12 8.70001 15 8.82 15 9C15 9.18 15.12 9.29999 15.3 9.29999H16.5C16.68 9.29999 16.8 9.18 16.8 9C16.8 8.82 16.68 8.70001 16.5 8.70001Z" fill="black"/>
<path d="M2.7 9.29999C2.85001 9.29999 2.99998 9.18 2.99998 9C2.99998 8.82 2.88 8.70001 2.7 8.70001H1.50001C1.32001 8.70001 1.20002 8.82 1.20002 9C1.20002 9.18 1.32001 9.29999 1.50001 9.29999H2.7Z" fill="black"/>
<path d="M14.1 3.48L13.26 4.31999C13.14 4.43998 13.14 4.61998 13.26 4.74C13.32 4.80001 13.38 4.83 13.47 4.83C13.53 4.83 13.62 4.80001 13.68 4.74L14.52 3.90001C14.64 3.78003 14.64 3.60003 14.52 3.48C14.4 3.35998 14.22 3.35998 14.1 3.48Z" fill="black"/>
<path d="M4.74001 13.26C4.62003 13.14 4.44003 13.14 4.32 13.26L3.48001 14.1C3.36003 14.22 3.36003 14.4 3.48001 14.52C3.54003 14.58 3.6 14.61 3.69 14.61C3.78 14.61 3.84001 14.58 3.89999 14.52L4.73998 13.68C4.86 13.56 4.86 13.38 4.74001 13.26Z" fill="black"/>
<path d="M13.68 13.26C13.56 13.14 13.38 13.14 13.26 13.26C13.14 13.38 13.14 13.56 13.26 13.68L14.1 14.52C14.16 14.58 14.22 14.61 14.31 14.61C14.37 14.61 14.46 14.58 14.52 14.52C14.6399 14.4 14.6399 14.22 14.52 14.1L13.68 13.26Z" fill="black"/>
<path d="M4.32 4.74001C4.38001 4.80002 4.43998 4.83001 4.52998 4.83001C4.61998 4.83001 4.70999 4.80002 4.73997 4.74001C4.85996 4.62002 4.85996 4.44002 4.73997 4.31999L3.89998 3.48001C3.78 3.36002 3.6 3.36002 3.47997 3.48001C3.35995 3.59999 3.35998 3.77999 3.47997 3.90002L4.32 4.74001Z" fill="black"/>
<path d="M12.3 9.29999C12.48 9.29999 12.6 9.18 12.6 9C12.6 8.82 12.48 8.70001 12.3 8.70001H10.1618C10.0526 8.27993 9.72011 7.94739 9.30003 7.83826V4.5C9.30003 4.32 9.18004 4.20001 9.00004 4.20001C8.82004 4.20001 8.70005 4.32 8.70005 4.5V7.83823C8.18399 7.97231 7.80005 8.44348 7.80005 9C7.80005 9.65999 8.34005 10.2 9.00004 10.2C9.55656 10.2 10.0277 9.81605 10.1618 9.29999H12.3ZM9 9.60001C8.66999 9.60001 8.39999 9.33001 8.39999 9C8.39999 8.66999 8.66999 8.39999 9 8.39999C9.33001 8.39999 9.60001 8.66999 9.60001 9C9.60001 9.33001 9.33001 9.60001 9 9.60001Z" fill="black"/>
</g>
<defs>
<clipPath id="clip0_76_21">
<rect width="18" height="18" fill="white"/>
</clipPath>
</defs>
</svg>
