<svg width="18" height="18" viewBox="0 0 18 18" fill="none" xmlns="http://www.w3.org/2000/svg">
<path d="M7.03638 14.4H9.00002C9.18067 14.4 9.32729 14.2537 9.32729 14.0727C9.32729 13.8917 9.18067 13.7455 9.00002 13.7455H7.03638C6.85572 13.7455 6.70911 13.8917 6.70911 14.0727C6.70911 14.2537 6.85572 14.4 7.03638 14.4Z" fill="black"/>
<path d="M9.98181 14.4C10.0669 14.4 10.152 14.364 10.2142 14.3051C10.2731 14.2429 10.3091 14.1578 10.3091 14.0727C10.3091 13.984 10.2731 13.8993 10.2142 13.8404C10.0931 13.7225 9.87381 13.7193 9.74945 13.8404C9.69054 13.9022 9.65454 13.984 9.65454 14.0727C9.65454 14.1578 9.69054 14.2429 9.74945 14.3051C9.81163 14.364 9.89672 14.4 9.98181 14.4Z" fill="black"/>
<path d="M8.67274 14.7273H8.01819C7.83754 14.7273 7.69092 14.8736 7.69092 15.0545C7.69092 15.2355 7.83754 15.3818 8.01819 15.3818H8.67274C8.85339 15.3818 9.00001 15.2355 9.00001 15.0545C9.00001 14.8736 8.85339 14.7273 8.67274 14.7273Z" fill="black"/>
<path d="M7.03638 15.3818C7.12147 15.3818 7.20656 15.3458 7.26874 15.2869C7.32765 15.2247 7.36365 15.1396 7.36365 15.0545C7.36365 14.9695 7.32765 14.884 7.26874 14.8222C7.14765 14.7011 6.92838 14.7011 6.80402 14.8222C6.74511 14.884 6.70911 14.9695 6.70911 15.0545C6.70911 15.1429 6.74511 15.2247 6.80402 15.2869C6.8662 15.3458 6.95129 15.3818 7.03638 15.3818Z" fill="black"/>
<path d="M6.38178 5.56364C6.56252 5.56364 6.70905 5.41711 6.70905 5.23636C6.70905 5.05562 6.56252 4.90909 6.38178 4.90909C6.20103 4.90909 6.0545 5.05562 6.0545 5.23636C6.0545 5.41711 6.20103 5.56364 6.38178 5.56364Z" fill="black"/>
<path d="M10.3091 3.27273C10.4898 3.27273 10.6364 3.1262 10.6364 2.94545C10.6364 2.76471 10.4898 2.61818 10.3091 2.61818C10.1283 2.61818 9.98181 2.76471 9.98181 2.94545C9.98181 3.1262 10.1283 3.27273 10.3091 3.27273Z" fill="black"/>
<path d="M10.6364 7.52727C10.8171 7.52727 10.9636 7.38075 10.9636 7.2C10.9636 7.01925 10.8171 6.87273 10.6364 6.87273C10.4556 6.87273 10.3091 7.01925 10.3091 7.2C10.3091 7.38075 10.4556 7.52727 10.6364 7.52727Z" fill="black"/>
<path d="M15.5454 5.89091C14.7502 5.89091 14.0082 6.11411 13.3707 6.49538C13.2948 6.37789 13.2009 6.27185 13.0909 6.18349C13.1347 5.7924 13.0019 5.39967 12.7191 5.11724C12.6442 5.04229 12.5607 4.97945 12.4723 4.92611C12.6942 4.65447 12.8026 4.30985 12.7636 3.96164C13.0709 3.71585 13.2545 3.34473 13.2545 2.94513C13.2545 2.54553 13.0713 2.17473 12.7636 1.92895C12.8075 1.53785 12.6746 1.14545 12.3918 0.863018C12.1091 0.579927 11.7173 0.447055 11.3259 0.490582C11.0801 0.183273 10.709 0 10.3091 0C9.90915 0 9.53802 0.183273 9.29224 0.490582C8.90213 0.447382 8.50908 0.579927 8.22631 0.863018C7.94355 1.14545 7.81068 1.53753 7.85453 1.92895C7.59369 2.13742 7.43006 2.43785 7.38424 2.76775C7.13813 2.4696 6.77486 2.29091 6.3818 2.29091C5.98188 2.29091 5.61075 2.47418 5.36497 2.78149C4.97388 2.73895 4.5818 2.87084 4.29904 3.15393C4.01628 3.43636 3.8834 3.82844 3.92726 4.21985C3.61995 4.46564 3.43635 4.83676 3.43635 5.23636C3.43635 5.40131 3.47464 5.55873 3.53289 5.70731C3.18795 5.61698 2.82762 5.56364 2.45453 5.56364H2.12726V5.89091C2.12726 8.12651 3.86148 9.96087 6.05453 10.1288V10.8H3.76362V13.4182H4.6178L5.80089 18H11.5442L12.7273 13.4182H13.5815V10.8H11.9451V10.456C14.1382 10.2878 15.8724 8.45345 15.8724 6.21818V5.89091H15.5454ZM12.8337 6.87011C12.7852 6.91036 12.7407 6.95455 12.6942 6.99676C12.6576 7.03015 12.6196 7.06254 12.5843 7.09691C12.5394 7.14044 12.4969 7.18593 12.454 7.23142C12.4108 7.27724 12.3683 7.32338 12.327 7.37084C12.2901 7.41371 12.2537 7.45658 12.2187 7.50076C12.1706 7.56098 12.1251 7.62284 12.0803 7.68567C12.0547 7.72134 12.0279 7.75604 12.0037 7.79269C11.9386 7.89022 11.878 7.99036 11.8214 8.0928C11.8014 8.12847 11.7841 8.16578 11.7651 8.20211C11.7272 8.27575 11.6905 8.35036 11.6568 8.42662C11.6371 8.4708 11.6185 8.51564 11.6002 8.5608C11.5701 8.63575 11.5426 8.71167 11.5167 8.78858C11.5023 8.83145 11.4866 8.87367 11.4735 8.91687C11.4715 8.92375 11.4686 8.93029 11.4666 8.93716L11.339 8.89756L11.2123 9.13844C11.0981 9.35575 10.8772 9.49091 10.6363 9.49091C10.3955 9.49091 10.1746 9.35575 10.0603 9.13811L9.9337 8.89691L9.67351 8.97774C9.4382 9.05105 9.18686 8.99018 9.01668 8.82C8.8465 8.64982 8.78595 8.39815 8.85893 8.16316L8.93977 7.90298L8.69857 7.77633C8.68057 7.76684 8.66682 7.75276 8.65013 7.74196C8.61609 7.65033 8.54344 7.58062 8.45115 7.54887C8.38439 7.44578 8.34544 7.32633 8.34544 7.2C8.34544 7.14076 8.35395 7.08251 8.36966 7.02687C8.37424 7.00985 8.38373 6.99513 8.38995 6.97876C8.40369 6.94178 8.41711 6.9048 8.4374 6.87076C8.4541 6.84294 8.477 6.81873 8.49795 6.79353C8.513 6.77553 8.52544 6.75556 8.54246 6.73887C8.57289 6.70942 8.60922 6.68487 8.64555 6.66065C8.66028 6.65084 8.67271 6.63905 8.6881 6.63022L8.72704 6.60796L8.93911 6.49669L8.85828 6.23651C8.84093 6.18055 8.8321 6.1236 8.82948 6.06698C8.82882 6.05095 8.83177 6.03589 8.83209 6.02018C8.83308 5.98156 8.83602 5.94295 8.84388 5.90531C8.84715 5.88829 8.85239 5.8716 8.85729 5.85491C8.86809 5.81793 8.88184 5.78193 8.89919 5.74756C8.90573 5.73447 8.91162 5.72073 8.91915 5.70829C8.94631 5.66247 8.9774 5.61829 9.01635 5.57967C9.02682 5.5692 9.03991 5.56298 9.05104 5.55349C9.08344 5.52535 9.11617 5.49687 9.15577 5.47495L9.16362 5.47069C9.25002 5.42356 9.34657 5.40131 9.4454 5.39705L9.46668 5.39673C9.49548 5.39607 9.52035 5.39836 9.54588 5.40033C9.58842 5.40491 9.63097 5.40884 9.67286 5.42193L9.93304 5.50276L10.0597 5.26156C10.1746 5.04425 10.3955 4.90909 10.6363 4.90909C10.6956 4.90909 10.7535 4.9176 10.8091 4.93331C10.8268 4.93822 10.8422 4.94804 10.8592 4.95458C10.8952 4.968 10.9315 4.98109 10.9646 5.00073C10.9927 5.01775 11.0173 5.04033 11.0428 5.0616C11.0605 5.07633 11.0798 5.08876 11.0962 5.10513C11.1256 5.13556 11.1502 5.17124 11.1741 5.20756C11.1839 5.22262 11.1963 5.23505 11.2048 5.25109L11.2271 5.28938L11.3393 5.50309L11.5995 5.42225C11.8348 5.34895 12.0862 5.40982 12.2563 5.58C12.4265 5.75018 12.4871 6.00185 12.4141 6.23684L12.3333 6.49669L12.5741 6.62367C12.6834 6.68127 12.7725 6.76702 12.8337 6.87011ZM9.9818 10.8V9.95956C10.0846 10.0201 10.1929 10.0695 10.3091 10.0996V10.8H9.9818ZM8.67271 10.8V9.37735C8.86449 9.52855 9.08868 9.62738 9.32726 9.65422V10.8H8.67271ZM7.69089 10.8V7.686C7.72362 7.6824 7.75635 7.68011 7.78842 7.67389C7.8434 7.81265 7.91933 7.94029 8.01817 8.05287V10.8H7.69089ZM8.3713 2.36913L8.61249 2.24247L8.53166 1.98229C8.45868 1.74731 8.5189 1.49596 8.6894 1.32545C8.81213 1.20273 8.97642 1.13727 9.1466 1.13727C9.21304 1.13727 9.28013 1.14709 9.34591 1.16771L9.60609 1.24855L9.73275 1.00735C9.8473 0.789709 10.0682 0.654545 10.3091 0.654545C10.5499 0.654545 10.7709 0.789709 10.8851 1.00735L11.0117 1.24855L11.2719 1.16771C11.5069 1.09473 11.7586 1.15495 11.9288 1.32545C12.0993 1.49596 12.1595 1.74731 12.0865 1.98229L12.0057 2.24247L12.2469 2.36913C12.4648 2.484 12.6 2.70458 12.6 2.94545C12.6 3.18633 12.4648 3.40691 12.2469 3.52178L12.0057 3.64844L12.0865 3.90862C12.1595 4.1436 12.0993 4.39495 11.9288 4.56578C11.8489 4.64564 11.7484 4.70127 11.6368 4.72876C11.6339 4.72549 11.6303 4.72287 11.6273 4.7196C11.4437 4.50229 11.1976 4.34978 10.9224 4.2876C10.8291 4.26567 10.7335 4.25455 10.6363 4.25455C10.5378 4.25455 10.4416 4.266 10.348 4.2876C10.3166 4.2948 10.2878 4.3092 10.257 4.31869C10.1965 4.33735 10.1356 4.35469 10.079 4.38153C10.0443 4.39789 10.0135 4.42145 9.9805 4.44109C9.93206 4.46989 9.88231 4.4964 9.8378 4.53109C9.8054 4.55629 9.77824 4.58771 9.74846 4.61618C9.71344 4.64924 9.67548 4.67836 9.64439 4.71535L9.60609 4.64236L9.34624 4.7232C9.25035 4.75298 9.15217 4.75527 9.05693 4.74185L9.03697 4.73858C8.89984 4.71535 8.78497 4.65775 8.69464 4.56938C8.693 4.56775 8.69071 4.56676 8.68908 4.56513C8.51857 4.39462 8.45835 4.14327 8.53133 3.90829L8.61217 3.64811L8.37097 3.52145C8.32057 3.49495 8.27606 3.46156 8.23515 3.42491C8.2214 3.41247 8.20995 3.39775 8.19719 3.38433C8.1733 3.3588 8.15071 3.33229 8.13108 3.30316C8.11799 3.28353 8.10653 3.26258 8.0954 3.24164C8.08231 3.21676 8.07119 3.19091 8.06137 3.1644C8.05188 3.13822 8.04304 3.11204 8.03715 3.08455C8.02733 3.03938 8.01817 2.99324 8.01817 2.94545C8.01817 2.70458 8.15333 2.484 8.3713 2.36913ZM4.61715 6.15698L4.68522 5.93935L4.44402 5.81236C4.22606 5.69782 4.09089 5.47724 4.09089 5.23636C4.09089 4.99549 4.22606 4.77491 4.44402 4.66004L4.68522 4.53338L4.60439 4.2732C4.5314 4.03822 4.59162 3.78687 4.76213 3.61636C4.93264 3.44585 5.18399 3.38531 5.41897 3.45862L5.67915 3.53945L5.8058 3.29825C5.92002 3.08062 6.14093 2.94545 6.3818 2.94545C6.62268 2.94545 6.84359 3.08062 6.9578 3.29825L7.08479 3.53945L7.34497 3.45862C7.38195 3.44716 7.42057 3.43898 7.46082 3.43538C7.46704 3.45109 7.47588 3.46549 7.48275 3.48087C7.49159 3.50018 7.50042 3.51884 7.50991 3.53749C7.54722 3.61047 7.59042 3.67985 7.64082 3.74433C7.64835 3.75415 7.65686 3.76298 7.66471 3.77215C7.72166 3.84087 7.78384 3.90567 7.85453 3.96229C7.84373 4.06015 7.84373 4.15767 7.85453 4.25389C7.86271 4.3272 7.88268 4.39789 7.90297 4.46825C7.96253 4.67575 8.06824 4.86982 8.22664 5.02789C8.29962 5.10087 8.3798 5.16305 8.46555 5.21575C8.4374 5.25044 8.41351 5.28775 8.38897 5.32505C8.38144 5.33618 8.37293 5.34665 8.36573 5.35811C8.32384 5.42716 8.29013 5.50047 8.26166 5.57607C8.25217 5.60062 8.24431 5.62516 8.23646 5.65069C8.21453 5.72105 8.19751 5.79273 8.18769 5.86636C8.18671 5.87324 8.18409 5.87945 8.18311 5.88633L8.07969 5.94164L8.15988 6.1992C8.1602 6.20051 8.16053 6.20149 8.16086 6.2028C8.09835 6.25516 8.0414 6.31309 7.99002 6.37527C7.96351 6.40735 7.94322 6.44334 7.91999 6.47771C7.89315 6.51698 7.86631 6.55593 7.84406 6.59782C7.82508 6.63415 7.81002 6.67145 7.79464 6.70942C7.77533 6.75622 7.75799 6.80302 7.74424 6.85178C7.73442 6.88745 7.72559 6.9228 7.71871 6.95913C7.71446 6.98105 7.7066 7.00167 7.70333 7.02393C7.58715 7.05305 7.46213 7.05044 7.34529 7.01378L7.08511 6.93295L6.95846 7.17414C6.84359 7.39211 6.62268 7.52727 6.3818 7.52727C6.14093 7.52727 5.92002 7.39211 5.8058 7.17447L5.67555 6.9264L5.59897 6.95258C5.58031 6.93196 5.5574 6.9156 5.5381 6.89531C5.41602 6.76636 5.28839 6.64298 5.15093 6.53007C5.13359 6.516 5.1146 6.50356 5.09693 6.48982C4.95849 6.37985 4.81253 6.28004 4.661 6.18742C4.64562 6.17825 4.63286 6.16615 4.61715 6.15698ZM2.79817 6.23454C3.2246 6.27513 3.62944 6.39033 3.99959 6.56705L4.02806 6.58178C4.06111 6.59782 4.09253 6.61647 4.12493 6.63349C4.2146 6.68062 4.30166 6.73167 4.38609 6.78535C4.409 6.79975 4.43159 6.81447 4.45417 6.82953C4.52388 6.876 4.59129 6.92575 4.65708 6.9768C4.68653 6.99971 4.71697 7.02164 4.74577 7.04553C4.80468 7.09396 4.86097 7.14633 4.9166 7.19836C4.96504 7.24385 5.01217 7.29033 5.05799 7.33811C5.11166 7.39407 5.16468 7.45069 5.21475 7.51058C5.66933 8.0532 5.96748 8.73131 6.03817 9.47455C4.32686 9.31189 2.96082 7.94585 2.79817 6.23454ZM6.70908 10.1455V9.81818V8.13633C6.82526 8.10589 6.93359 8.05647 7.03635 7.99593V10.8H6.70908V10.1455ZM11.0376 17.3455H6.30784L5.29362 13.4182H12.0512L11.0376 17.3455ZM12.9273 12.7636H12.8965H4.44893H4.41817V11.4545H12.9273V12.7636ZM10.9636 10.8V10.1C11.0837 10.0685 11.1953 10.0168 11.3007 9.95335C11.2978 10.0175 11.2909 10.0807 11.2909 10.1455V10.4727V10.8H10.9636ZM11.9618 9.80182C11.9772 9.63884 12.007 9.48011 12.0436 9.32433C12.0603 9.25331 12.078 9.18229 12.0989 9.11291C12.1097 9.07756 12.1218 9.04255 12.1333 9.00753C12.1552 8.94142 12.1785 8.87596 12.2043 8.81149C12.2184 8.77647 12.2338 8.74178 12.2488 8.70709C12.2766 8.6436 12.3058 8.58109 12.3372 8.51956C12.3539 8.48716 12.3709 8.45509 12.3886 8.42302C12.4229 8.36018 12.4593 8.29833 12.4972 8.23745C12.5146 8.20996 12.5322 8.18247 12.5502 8.15531C12.5934 8.09051 12.6386 8.02735 12.6861 7.96549C12.7018 7.94487 12.7175 7.92458 12.7335 7.90429C12.7885 7.83589 12.8458 7.76913 12.9057 7.70465C12.9165 7.6932 12.9269 7.68109 12.9377 7.66996C13.0088 7.59535 13.0827 7.52334 13.1603 7.45494C13.1613 7.45396 13.1622 7.45331 13.1632 7.45233C13.2454 7.37967 13.3314 7.31029 13.4208 7.24484L13.5016 7.1856C13.9942 6.84458 14.5744 6.62204 15.2018 6.56215C15.0392 8.27313 13.6731 9.63916 11.9618 9.80182Z" fill="black"/>
</svg>
