<svg width="18" height="18" viewBox="0 0 18 18" fill="none" xmlns="http://www.w3.org/2000/svg">
<g clip-path="url(#clip0_76_58)">
<path d="M16.9242 1.96129C16.8642 1.48164 16.4445 1.00195 15.665 0.552257L14.8256 0.0426325C14.7357 0.0126649 14.6757 -0.0173378 14.5858 0.0126649C14.5258 0.0426325 14.4359 0.102603 14.4059 0.162573L10.1116 7.33937C10.0673 7.36273 10.0283 7.39863 9.99894 7.4475L8.52695 9.9281L7.16896 9.17722L8.41006 6.93784C8.5 6.78793 8.44003 6.60806 8.29016 6.51812L7.52625 6.09664L9.18954 3.13045C9.63923 3.07048 10.0289 2.83067 10.2388 2.44092C10.4187 2.08116 10.4487 1.66144 10.2688 1.24176C10.0889 0.852038 9.78913 0.522254 9.36941 0.282408C8.5 -0.197249 7.45075 0.0125947 7.061 0.732097C6.88112 1.09185 6.85115 1.57151 7.061 1.99123L5.26245 5.19863C5.26238 5.19878 5.26231 5.19888 5.26224 5.19902L4.02191 7.43703L2.4142 6.54812C2.11442 6.36825 1.78463 6.39822 1.51482 6.54812C1.24501 6.728 1.06513 6.99781 1.06513 7.3276V17.1009C1.06513 17.6105 1.45485 18.0002 1.96451 18.0002H12.1575C12.6671 18.0002 13.0568 17.6105 13.0568 17.1009V12.9637C13.0568 12.6339 12.9069 12.3341 12.6071 12.1842L11.8957 11.7908C12.3785 11.0833 12.8792 10.3082 13.3566 9.4861C13.4465 9.33619 13.4166 9.15632 13.2667 9.06638L11.9919 8.30152C12.534 8.03575 13.3765 7.51889 14.0761 6.66803C14.1361 6.57809 15.3652 4.86927 15.8749 3.16045V3.13049C15.9048 3.10052 15.9648 2.77073 16.5644 2.74077C16.6543 2.74077 16.7143 2.7108 16.7443 2.62086C16.7742 2.59086 16.9841 2.35101 16.9242 1.96129ZM10.3887 8.07707L11.7973 8.91858C11.2967 9.72103 10.854 10.3912 10.4531 10.9932L9.07297 10.23L10.3887 8.07707ZM7.60059 2.17114C7.66056 2.0812 7.66056 1.96129 7.60059 1.87136C7.42071 1.57158 7.42071 1.27176 7.54062 1.03195C7.78046 0.582259 8.46996 0.492322 9.03959 0.822105C9.33937 0.972013 9.54925 1.21182 9.66916 1.48164C9.78906 1.72148 9.78906 1.96129 9.66916 2.17117C9.51925 2.41102 9.24944 2.56089 8.91969 2.56089C8.82975 2.56089 8.73981 2.62086 8.67984 2.7108L6.97454 5.79233L5.92915 5.21557L7.60059 2.17114ZM5.61616 5.74929L6.94102 6.48815C6.96976 6.50252 6.99161 6.5099 7.01318 6.5138L7.72049 6.90787L6.6417 8.8857L6.38931 8.74612L5.58363 8.29724L5.80183 7.89719C5.89177 7.74728 5.8318 7.56741 5.68193 7.47747C5.53205 7.38753 5.35214 7.4475 5.26221 7.59737L5.04435 7.99679L4.5427 7.71732L5.61616 5.74929ZM12.4572 12.9637V17.1008C12.4572 17.2807 12.3373 17.4006 12.1575 17.4006H1.96451C1.78463 17.4006 1.66473 17.2807 1.66473 17.1008V16.801H3.76327C3.94314 16.801 4.06305 16.6811 4.06305 16.5013C4.06305 16.3214 3.94314 16.2015 3.76327 16.2015H1.66469V15.6019H2.86385C3.04373 15.6019 3.16363 15.482 3.16363 15.3021C3.16363 15.1222 3.04373 15.0023 2.86385 15.0023H1.66469V7.3276C1.66469 7.17769 1.75463 7.08775 1.8146 7.05778C1.84457 7.05778 1.90454 7.02782 1.96451 7.02782C1.99448 7.02782 2.05445 7.02781 2.11442 7.05778L3.95386 8.07489C3.96988 8.08785 3.98646 8.09874 4.00311 8.10707L4.97802 8.64494C4.99183 8.65636 5.00648 8.66711 5.02239 8.67666C5.04137 8.68615 5.05718 8.69237 5.07204 8.69683L6.61131 9.54607C6.61855 9.54969 6.62533 9.55285 6.63179 9.55563L8.45907 10.566C8.47249 10.5781 8.48623 10.5885 8.5 10.5954L10.3571 11.6227C10.367 11.6304 10.3774 11.6379 10.3887 11.6446C10.4089 11.6547 10.4291 11.6647 10.4493 11.6737L11.3181 12.1543C11.3372 12.1638 11.3532 12.1701 11.3681 12.1745L12.3074 12.6939C12.3973 12.7538 12.4572 12.8438 12.4572 12.9637ZM11.3878 11.51L10.9854 11.2875C11.3916 10.6956 11.8108 10.0343 12.3172 9.22915L12.6971 9.4561C12.2507 10.1703 11.8338 10.8549 11.3878 11.51ZM16.3246 2.17114C15.6051 2.29104 15.3352 2.77073 15.2753 3.04055C14.7656 4.65943 13.5665 6.33828 13.5665 6.33828C12.7858 7.2925 11.7821 7.77247 11.3891 7.93984L10.6963 7.52419L14.7357 0.702165L15.3353 1.06192C16.1147 1.54157 16.2946 1.90132 16.3246 2.05123C16.3246 2.1112 16.3246 2.14117 16.3246 2.17114Z" fill="black"/>
<path d="M12.0075 6.09821C11.7677 6.15818 11.6178 6.39799 11.6778 6.63784C11.7377 6.87768 11.9775 7.02755 12.2174 6.96762C12.4572 6.90768 12.6071 6.66784 12.5472 6.42799C12.4872 6.18815 12.2474 6.03824 12.0075 6.09821Z" fill="black"/>
<path d="M14.6457 1.72122C14.4059 1.78119 14.256 2.021 14.316 2.26085C14.3759 2.50069 14.6157 2.65057 14.8556 2.59063C15.0954 2.5307 15.2453 2.29085 15.1854 2.05101C15.1254 1.81116 14.8556 1.66129 14.6457 1.72122Z" fill="black"/>
<path d="M6.73121 5.01895C6.88112 5.10889 7.061 5.04892 7.15093 4.89905C7.24087 4.74918 7.1809 4.56927 7.03103 4.47933C6.88112 4.38939 6.70125 4.44936 6.61131 4.59923C6.55134 4.74914 6.58131 4.92902 6.73121 5.01895Z" fill="black"/>
<path d="M7.7505 3.16023C7.9004 3.25017 8.08028 3.1902 8.17022 3.04032C8.26016 2.89041 8.20019 2.71054 8.05031 2.6206C7.90044 2.53066 7.72053 2.59063 7.63059 2.74051C7.57062 2.89041 7.60059 3.07029 7.7505 3.16023Z" fill="black"/>
</g>
<defs>
<clipPath id="clip0_76_58">
<rect width="18" height="18" fill="white"/>
</clipPath>
</defs>
</svg>
