<svg width="18" height="18" viewBox="0 0 18 18" fill="none" xmlns="http://www.w3.org/2000/svg">
<g clip-path="url(#clip0_76_82)">
<path d="M13.1003 1.5673C11.78 0.385343 10.0761 -0.157039 8.29802 0.0397542C5.47182 0.353244 3.19639 2.63317 2.8877 5.46147C2.67801 7.38351 3.35359 9.24915 4.74134 10.5799C5.63651 11.4382 6.15009 12.6195 6.15009 13.8207V14.4006V15.0006V15.6005V16.8005H6.90007L7.80004 18.0005H9.89997L10.7999 16.8005H11.5499V15.6005V15.0006V14.4006V14.1006C11.5499 12.8352 12.1085 11.6137 13.0823 10.7488C14.3962 9.58214 15.1498 7.90609 15.1498 6.15085C15.1498 4.40371 14.4028 2.73276 13.1003 1.5673ZM9.59998 17.4002H8.10003L7.65004 16.8002H10.05L9.59998 17.4002ZM10.9499 16.2002H6.75007V15.6002H10.9499V16.2002ZM10.9499 15.0003H6.75007V14.4003H7.95003H9.74997H10.9499V15.0003ZM8.55001 11.7004H9.14999V13.8003H8.55001V11.7004ZM12.6839 10.2997C11.6588 11.2099 11.0402 12.4722 10.9589 13.8003H9.74967V11.4004C9.74967 9.18555 10.2207 8.40048 11.5496 8.40048C11.7152 8.40048 11.8496 8.26638 11.8496 8.10049C11.8496 7.93459 11.7152 7.8005 11.5496 7.8005C9.33869 7.8005 9.16499 9.86173 9.15119 11.1004H8.54791C8.53411 9.86173 8.36042 7.8005 6.1495 7.8005C5.9839 7.8005 5.84951 7.93459 5.84951 8.10049C5.84951 8.26638 5.9839 8.40048 6.1495 8.40048C7.47845 8.40048 7.94943 9.18555 7.94943 11.4004V13.8003H6.74948C6.74378 12.4437 6.16359 11.113 5.15593 10.1467C3.90377 8.94586 3.29419 7.26201 3.48348 5.52657C3.76247 2.97546 5.81501 0.919025 8.36432 0.636134C9.96957 0.45854 11.5085 0.947524 12.7001 2.01399C13.8754 3.06635 14.5498 4.5741 14.5498 6.15055C14.5498 7.7348 13.8697 9.24705 12.6839 10.2997Z" fill="black"/>
<path d="M12.6083 6.34539C12.4679 6.25839 12.2828 6.30099 12.1952 6.44169C12.0113 6.73718 11.7824 6.90007 11.5499 6.90007C11.3174 6.90007 11.0886 6.73718 10.9047 6.44169C10.9032 6.43929 10.9005 6.43809 10.899 6.43539C10.8879 6.41859 10.8717 6.40569 10.857 6.39099C10.8429 6.37719 10.8309 6.36189 10.8147 6.35109C10.812 6.34929 10.8108 6.34659 10.8081 6.34509C10.7949 6.33699 10.7799 6.33549 10.7661 6.32949C10.7463 6.32109 10.7277 6.31149 10.7067 6.30759C10.6878 6.30399 10.6692 6.30549 10.6503 6.30549C10.6308 6.30549 10.6119 6.30369 10.5924 6.30759C10.5711 6.31179 10.5522 6.32139 10.5321 6.33009C10.5186 6.33609 10.5042 6.33729 10.4913 6.34539C10.4889 6.34689 10.4877 6.34959 10.4853 6.35109C10.4685 6.36219 10.4556 6.37809 10.4412 6.39249C10.4271 6.40659 10.4115 6.41889 10.401 6.43539C10.3995 6.43779 10.3968 6.43899 10.395 6.44169C10.2111 6.73718 9.98219 6.90007 9.7497 6.90007C9.51721 6.90007 9.28831 6.73718 9.10442 6.44169C9.10292 6.43929 9.10022 6.43809 9.09872 6.43539C9.08762 6.41859 9.07142 6.40569 9.05672 6.39099C9.04262 6.37719 9.03062 6.36189 9.01442 6.35109C9.01172 6.34929 9.01052 6.34659 9.00782 6.34509C8.99462 6.33699 8.97962 6.33549 8.96582 6.32949C8.94602 6.32109 8.92742 6.31149 8.90643 6.30759C8.88753 6.30399 8.86893 6.30549 8.85003 6.30549C8.83053 6.30549 8.81163 6.30369 8.79213 6.30759C8.77083 6.31179 8.75193 6.32139 8.73183 6.33009C8.71833 6.33609 8.70393 6.33729 8.69103 6.34539C8.68863 6.34689 8.68743 6.34959 8.68503 6.35109C8.66823 6.36219 8.65533 6.37809 8.64093 6.39249C8.62684 6.40659 8.61124 6.41889 8.60074 6.43539C8.59924 6.43779 8.59654 6.43899 8.59474 6.44169C8.41084 6.73718 8.18195 6.90007 7.94946 6.90007C7.71697 6.90007 7.48807 6.73718 7.30418 6.44169C7.30268 6.43929 7.29998 6.43809 7.29848 6.43539C7.28738 6.41859 7.27118 6.40569 7.25648 6.39099C7.24238 6.37719 7.23038 6.36189 7.21418 6.35109C7.21148 6.34929 7.21028 6.34659 7.20758 6.34509C7.19438 6.33699 7.17938 6.33549 7.16558 6.32949C7.14578 6.32109 7.12718 6.31149 7.10619 6.30759C7.08729 6.30399 7.06869 6.30549 7.04979 6.30549C7.03029 6.30549 7.01139 6.30369 6.99189 6.30759C6.97059 6.31179 6.95169 6.32139 6.93159 6.33009C6.91809 6.33609 6.90369 6.33729 6.89079 6.34539C6.88839 6.34689 6.88719 6.34959 6.88479 6.35109C6.86799 6.36219 6.85509 6.37809 6.84069 6.39249C6.82659 6.40659 6.811 6.41889 6.8005 6.43539C6.799 6.43779 6.7963 6.43899 6.7945 6.44169C6.6106 6.73718 6.38171 6.90007 6.14922 6.90007C5.91673 6.90007 5.68783 6.73718 5.50394 6.44169C5.41634 6.30099 5.23125 6.25809 5.09085 6.34539C4.95016 6.43299 4.90696 6.61778 4.99456 6.75878C5.29185 7.23696 5.70193 7.50035 6.14922 7.50035C6.47981 7.50035 6.7897 7.35576 7.04919 7.08757C7.30868 7.35576 7.61857 7.50035 7.94916 7.50035C8.27975 7.50035 8.58964 7.35576 8.84913 7.08757C9.10862 7.35576 9.41851 7.50035 9.7491 7.50035C10.0797 7.50035 10.3896 7.35576 10.6491 7.08757C10.9086 7.35576 11.2184 7.50035 11.549 7.50035C11.9963 7.50035 12.4064 7.23696 12.7037 6.75878C12.7919 6.61808 12.749 6.43299 12.6083 6.34539Z" fill="black"/>
</g>
<defs>
<clipPath id="clip0_76_82">
<rect width="18" height="18" fill="white"/>
</clipPath>
</defs>
</svg>
