<svg width="18" height="18" viewBox="0 0 18 18" fill="none" xmlns="http://www.w3.org/2000/svg">
<g clip-path="url(#clip0_76_101)">
<path d="M2.99608 4.82018C2.81678 4.82018 2.69727 4.93969 2.69727 5.11899C2.69727 5.29828 2.81678 5.4178 2.99608 5.4178C3.17537 5.4178 3.29489 5.29828 3.29489 5.11899C3.29489 4.93969 3.17537 4.82018 2.99608 4.82018Z" fill="black"/>
<path d="M17.8178 10.9162C17.7282 10.8565 17.6087 10.8565 17.519 10.8864C17.4892 10.8864 17.4593 10.9162 17.3995 10.9162C17.4593 10.7369 17.519 10.5278 17.5788 10.3783L17.6386 10.2588C17.9673 9.57153 18.0569 8.82445 17.9673 7.98775C17.8478 6.85222 16.5927 6.04539 15.5468 6.01549C14.7164 5.98871 14.0063 6.4424 13.5667 7.2469C13.1805 7.0335 12.7354 6.91196 12.2597 6.91196H9.89898C9.8392 6.91196 8.37495 6.76253 8.37495 5.11898C8.37495 3.14672 7.20954 2.54906 7.03021 2.45941C5.93476 1.86407 5.06706 2.2176 4.74468 2.40088C4.66037 2.34303 4.56987 2.29237 4.47467 2.25014C4.48482 2.1433 4.4902 2.03361 4.4902 1.92153C4.4902 1.11471 4.22125 0.427408 3.77302 0.0986911C3.6535 0.00904429 3.53395 0.00904429 3.41443 0.0986911C3.04189 0.388423 2.84145 0.878846 2.75337 1.36144C2.35743 1.12774 1.9589 1.02001 1.59156 1.08481C1.47204 1.08481 1.38239 1.20432 1.35249 1.32388C1.24539 2.07341 1.73792 2.84666 2.35726 3.30045C1.96417 3.92171 1.54598 4.54956 1.08354 5.08908L0.789932 5.43606C0.757498 5.45279 0.726239 5.47625 0.695051 5.50744L0.39624 5.83616C-0.14164 6.46369 -0.11177 7.39006 0.456017 7.95781C0.592516 8.09431 0.754116 8.2055 0.93195 8.28639C1.58002 8.60613 2.3841 8.45023 2.90642 7.92791L3.17536 7.65897C3.26501 7.56932 3.38453 7.53945 3.53395 7.56932C3.65347 7.59919 3.77302 7.71874 3.80289 7.83826L5.20737 12.3207L3.52391 16.5574C1.76273 16.0354 0.654856 15.4436 0.515793 15.3687C0.456017 15.2791 0.3365 15.2492 0.246853 15.2791C0.127336 15.309 0.0376888 15.3986 0.00778279 15.5182C-0.0221232 15.6377 0.0376532 15.7871 0.1273 15.8469C0.161692 15.8641 1.42323 16.5639 3.47873 17.1552C3.5091 17.1825 3.54734 17.206 3.59369 17.2215C4.281 17.4008 5.02808 17.5801 5.74525 17.6996C5.77512 17.6996 5.77512 17.6996 5.80503 17.6996C5.82308 17.6996 5.84113 17.6973 5.85886 17.6935C6.86498 17.8605 7.97125 17.9686 9.15187 17.9686C10.755 17.9686 12.5059 17.7635 14.3204 17.2284C14.3502 17.2298 14.3806 17.2276 14.4112 17.2215C15.0089 17.0422 15.6662 16.8032 16.3237 16.5342C16.3639 16.5181 16.3973 16.4932 16.424 16.4627C16.8673 16.2696 17.3123 16.0553 17.758 15.817C17.9075 15.7572 17.9672 15.5779 17.8775 15.4285C17.8178 15.2791 17.6385 15.2194 17.4891 15.309C17.1108 15.5067 16.7339 15.6872 16.3588 15.8523L14.9491 12.2311V9.6014C14.9491 9.29062 14.8967 8.99309 14.8014 8.71625C15.0618 8.08466 15.3434 7.80846 15.487 7.80846C15.6663 7.80846 15.8157 7.98775 15.8456 8.19692C15.8754 8.61528 15.8157 9.06352 15.5766 9.54162L15.5468 9.6014C15.1284 10.9162 15.1882 11.9024 15.7559 12.4104C15.995 12.6494 16.3237 12.7689 16.6823 12.7689C17.011 12.7689 17.3995 12.6793 17.788 12.5C17.9075 12.4402 17.9673 12.3506 17.9673 12.2311V11.1553C17.9673 11.0656 17.9075 10.976 17.8178 10.9162ZM10.7058 10.7967H9.92885L10.1081 9.90021H10.5265L10.7058 10.7967ZM10.7655 9.30255H9.86908H8.67376C8.49447 9.30255 8.37495 9.18303 8.37495 9.00374V7.50961H9.86908H11.9609V9.00374C11.9609 9.18303 11.8413 9.30255 11.662 9.30255H10.7655ZM6.76127 2.96742C6.76127 2.9973 6.79114 2.9973 6.79114 2.9973C6.85092 3.02717 7.80716 3.44553 7.80716 5.11895C7.80716 5.95568 8.10597 6.55333 8.52434 6.91192H8.0761H7.77729L6.13374 4.58107C5.80503 4.10293 5.53609 3.56505 5.26715 2.9973V2.93755C5.23728 2.90768 5.23728 2.84791 5.20737 2.81804C5.47631 2.69848 6.0441 2.57897 6.76127 2.96742ZM3.59373 0.756125C3.77302 1.02507 3.89254 1.44343 3.89254 1.89166C3.89254 2.3698 3.77302 2.78813 3.59373 3.05707C3.47207 2.89487 3.37805 2.64996 3.33009 2.3693C3.30809 2.2265 3.2967 2.07954 3.29531 1.92299C3.29997 1.45561 3.41799 1.01973 3.59373 0.756125ZM1.95018 1.68246C2.18925 1.71233 2.45819 1.83189 2.69726 2.04105C2.69726 2.13422 2.70352 2.22722 2.71538 2.31775C2.72766 2.43417 2.74589 2.54707 2.77056 2.65512C2.73542 2.69062 2.71139 2.7175 2.69078 2.75954C2.67921 2.77578 2.66839 2.79258 2.65824 2.80999C2.27477 2.48252 2.00946 2.06786 1.95018 1.68246ZM1.19818 7.75623C1.10978 7.71856 1.0264 7.6694 0.951353 7.60866C0.950712 7.60816 0.950107 7.60763 0.949466 7.60713C0.9385 7.59819 0.927784 7.58894 0.917175 7.57954C0.91219 7.57509 0.907277 7.57057 0.902364 7.56601C0.895315 7.55949 0.888337 7.55291 0.881465 7.54618C0.873882 7.53874 0.866477 7.53115 0.859178 7.5235C0.855084 7.51923 0.850919 7.51495 0.846931 7.51061C0.838885 7.50185 0.831088 7.49288 0.823398 7.48384C0.819802 7.47964 0.816028 7.47551 0.812539 7.47123C0.80816 7.46593 0.804066 7.46041 0.799829 7.45504C0.517929 7.09652 0.540537 6.58612 0.844546 6.25449L0.993969 6.07519C1.3783 6.19343 2.20085 6.63372 2.36309 7.54002C2.03178 7.82598 1.57689 7.90469 1.19818 7.75623ZM6.20424 17.1566L7.98646 12.5896H12.1999L13.9205 16.7245C11.0592 17.5203 8.39357 17.4903 6.20424 17.1566ZM15.756 16.0859C15.3077 16.2652 14.8595 16.4146 14.4112 16.564L12.6183 12.1713C12.5884 12.0518 12.4688 11.992 12.3493 11.992H7.74739C7.62787 11.992 7.50832 12.0518 7.47845 12.1713L5.59586 17.0422C5.11064 16.9565 4.62541 16.8436 4.14019 16.7295C4.11751 16.7235 4.09512 16.7175 4.07261 16.7115L5.83493 12.4103C5.8648 12.3505 5.8648 12.2609 5.83493 12.2012L4.37068 7.59923C4.25116 7.27051 3.98222 7.03144 3.6535 6.94179C3.3894 6.86977 3.10615 6.93296 2.88097 7.08449C2.59042 6.24007 1.85925 5.78553 1.39599 5.57288L1.50194 5.44767C2.05731 4.83676 2.50942 4.12272 2.93028 3.44927C2.9557 3.43253 2.97862 3.41196 2.99607 3.38579L3.03548 3.32274C3.1043 3.43446 3.18259 3.53422 3.26967 3.61998C3.30795 3.66441 3.34625 3.7061 3.38453 3.74441C3.4845 3.81939 3.60526 3.83142 3.69459 3.78098C3.72072 3.7704 3.74685 3.75748 3.77298 3.74441C4.02402 3.56031 4.21876 3.26374 4.34155 2.89672C4.48033 2.98405 4.61377 3.09727 4.66945 3.23644L4.69932 3.26631C4.96826 3.83409 5.26711 4.40185 5.6257 4.93973L7.35889 7.3901C7.41867 7.44987 7.50832 7.50961 7.59796 7.50961H7.62783H7.77726V9.00374C7.77726 9.51175 8.16571 9.90021 8.67373 9.90021H9.49849L9.27138 11.0357C9.27138 11.1254 9.27138 11.215 9.33116 11.2748C9.39094 11.3645 9.48058 11.3943 9.57023 11.3943H11.0644C11.154 11.3943 11.2436 11.3645 11.3034 11.2748C11.3632 11.215 11.3931 11.1254 11.3632 11.0357L11.1361 9.90021H11.662C12.17 9.90021 12.5585 9.51175 12.5585 9.00374V7.54009C13.5496 7.70756 14.2917 8.55846 14.2917 9.6014V12.2908C14.2917 12.3506 14.3215 12.3805 14.3215 12.4104L15.756 16.0859ZM16.7421 11.3047C16.772 11.3943 16.8019 11.4242 16.8915 11.484C16.9812 11.5438 17.0409 11.5438 17.1306 11.5438H17.1904C17.2501 11.5438 17.3099 11.5139 17.3696 11.5139V12.0219C17.1306 12.1115 16.8915 12.1713 16.6823 12.1713C16.4731 12.1713 16.2939 12.0817 16.1445 11.9622C15.756 11.6036 15.7261 10.8266 16.0847 9.78073L16.1146 9.75085C16.3835 9.18307 16.4731 8.64519 16.4134 8.10731C16.3536 7.5993 15.9352 7.21084 15.4571 7.21084C15.1016 7.21084 14.7754 7.47568 14.4494 8.03368C14.3265 7.86154 14.1837 7.70486 14.0242 7.56668C14.2637 7.08936 14.7414 6.58338 15.487 6.61322C16.264 6.61322 17.2501 7.27065 17.3397 8.0476C17.4294 8.76478 17.3397 9.39234 17.0708 9.98996V10.0198L17.011 10.1693C16.8317 10.6772 16.7122 11.0656 16.7421 11.3047Z" fill="black"/>
</g>
<defs>
<clipPath id="clip0_76_101">
<rect width="18" height="18" fill="white"/>
</clipPath>
</defs>
</svg>
